<?xml version="1.0" encoding="UTF-8"?>
<svg id="Lag_2" data-name="Lag 2" xmlns="http://www.w3.org/2000/svg" viewBox="0 0 148.19 86.2">
  <defs>
    <style>
      .cls-1 {
        fill: #1d1d1b;
      }

      .cls-2 {
        fill: #fff;
      }
    </style>
  </defs>
  <g id="Lag_1-2" data-name="Lag 1">
    <g>
      <g>
        <path class="cls-1" d="M48.04,71.1l-2.46,10.13c-.08.33-.15.6-.22.79s-.16.34-.28.45-.31.16-.55.16c-.6,0-.9-.26-.9-.77,0-.13.06-.47.18-1.01l2.45-10.13c.13-.54.25-.91.37-1.11s.35-.3.69-.3c.29,0,.52.07.67.21s.23.33.23.58c0,.18-.06.51-.18.99Z"/>
        <path class="cls-1" d="M49.69,81.18v-10.41c0-.48.11-.84.32-1.09s.5-.37.87-.37.66.12.88.36.33.61.33,1.09v10.41c0,.49-.11.85-.34,1.09s-.52.36-.87.36-.64-.13-.86-.38-.33-.61-.33-1.08Z"/>
        <path class="cls-1" d="M63.55,77.76c0,.71-.11,1.37-.33,1.98s-.54,1.12-.97,1.56-.93.77-1.51,1-1.25.35-1.98.35-1.38-.12-1.96-.35-1.08-.57-1.51-1.01-.75-.95-.97-1.55-.33-1.25-.33-1.97.11-1.39.33-2,.54-1.12.96-1.55.92-.76,1.51-.99,1.25-.35,1.96-.35,1.39.12,1.98.35,1.1.57,1.52,1,.74.95.96,1.55.33,1.26.33,1.98ZM61.14,77.76c0-.98-.22-1.74-.65-2.29s-1.01-.82-1.74-.82c-.47,0-.88.12-1.24.36s-.63.6-.83,1.08-.29,1.03-.29,1.66.1,1.17.29,1.64.46.83.82,1.08.77.37,1.25.37c.73,0,1.31-.27,1.74-.82s.65-1.31.65-2.27Z"/>
        <path class="cls-1" d="M74.27,74.64v6.97c0,.8-.08,1.48-.25,2.06s-.44,1.05-.82,1.42-.87.65-1.47.83-1.36.27-2.26.27c-.83,0-1.56-.12-2.21-.35s-1.15-.53-1.5-.9-.53-.74-.53-1.13c0-.29.1-.53.3-.72s.44-.28.72-.28c.35,0,.66.16.92.47.13.16.26.32.4.48s.29.3.46.41.37.2.6.25.5.08.81.08c.62,0,1.1-.09,1.45-.26s.58-.41.72-.73.22-.64.24-1,.04-.92.05-1.71c-.37.52-.8.91-1.28,1.18s-1.06.4-1.73.4c-.8,0-1.5-.21-2.1-.62s-1.06-.98-1.38-1.72-.48-1.59-.48-2.56c0-.72.1-1.37.29-1.95s.48-1.07.84-1.47.78-.7,1.26-.9,1-.3,1.56-.3c.68,0,1.27.13,1.77.39s.96.67,1.39,1.23v-.33c0-.42.1-.74.31-.97s.47-.34.79-.34c.46,0,.77.15.92.45s.23.74.23,1.31ZM67.31,77.68c0,.97.21,1.71.64,2.21s.97.75,1.65.75c.4,0,.77-.11,1.13-.32s.64-.54.87-.97.33-.95.33-1.57c0-.98-.22-1.74-.65-2.29s-1-.82-1.7-.82-1.23.26-1.65.78-.62,1.26-.62,2.22Z"/>
        <path class="cls-1" d="M77.91,71.77c-.33,0-.62-.1-.86-.31s-.36-.5-.36-.87c0-.34.12-.62.36-.84s.53-.33.85-.33.59.1.83.3.36.49.36.87-.12.66-.35.87-.51.31-.83.31ZM79.09,74.25v6.93c0,.48-.11.84-.34,1.09s-.52.37-.87.37-.64-.13-.86-.38-.33-.61-.33-1.08v-6.86c0-.47.11-.83.33-1.07s.51-.36.86-.36.64.12.87.36.34.57.34,1Z"/>
        <path class="cls-1" d="M89.3,79.5c0,.66-.16,1.23-.48,1.7s-.8.83-1.43,1.07-1.4.36-2.3.36-1.6-.13-2.21-.4-1.07-.59-1.36-.99-.44-.79-.44-1.19c0-.26.09-.49.28-.68s.42-.28.71-.28c.25,0,.45.06.58.18s.26.3.39.52c.25.43.54.75.88.96s.81.32,1.4.32c.48,0,.87-.11,1.18-.32s.46-.46.46-.73c0-.42-.16-.73-.48-.92s-.85-.38-1.58-.55c-.83-.21-1.5-.42-2.02-.65s-.93-.52-1.24-.89-.47-.82-.47-1.36c0-.48.14-.93.43-1.36s.71-.77,1.27-1.02,1.23-.38,2.03-.38c.62,0,1.18.06,1.67.19s.91.3,1.24.52.58.46.76.72.26.52.26.77c0,.28-.09.5-.28.68s-.45.26-.79.26c-.25,0-.46-.07-.63-.21s-.37-.35-.59-.63c-.18-.23-.4-.42-.64-.56s-.58-.21-1-.21-.79.09-1.08.28-.43.41-.43.69c0,.25.11.46.32.62s.5.29.85.4.85.23,1.48.39c.74.18,1.35.4,1.82.65s.83.55,1.07.89.36.73.36,1.17Z"/>
        <path class="cls-1" d="M91.46,73.1h.26v-1.44c0-.39.01-.69.03-.91s.08-.41.17-.57c.09-.16.23-.3.4-.4s.37-.15.59-.15c.3,0,.58.11.83.34.16.15.27.34.31.56s.07.53.07.94v1.63h.88c.34,0,.6.08.78.24s.27.37.27.62c0,.32-.13.55-.38.68s-.62.19-1.09.19h-.45v4.41c0,.38.01.66.04.87s.1.37.21.49.3.19.56.19c.14,0,.33-.02.57-.07s.43-.07.56-.07c.19,0,.37.08.52.23s.23.35.23.58c0,.39-.21.68-.63.89s-1.03.31-1.82.31c-.75,0-1.32-.13-1.71-.38s-.64-.6-.76-1.05-.18-1.04-.18-1.78v-4.61h-.32c-.35,0-.61-.08-.79-.25s-.27-.37-.27-.62.1-.46.29-.62.47-.24.83-.24Z"/>
        <path class="cls-1" d="M98.91,71.77c-.33,0-.62-.1-.86-.31s-.36-.5-.36-.87c0-.34.12-.62.36-.84s.53-.33.85-.33.59.1.83.3.36.49.36.87-.12.66-.35.87-.51.31-.83.31ZM100.1,74.25v6.93c0,.48-.11.84-.34,1.09s-.52.37-.87.37-.64-.13-.86-.38-.33-.61-.33-1.08v-6.86c0-.47.11-.83.33-1.07s.51-.36.86-.36.64.12.87.36.34.57.34,1Z"/>
        <path class="cls-1" d="M108.55,81.54l-2.12-3.48-1.3,1.23v1.91c0,.46-.12.82-.37,1.07-.24.25-.52.37-.84.37-.37,0-.66-.12-.87-.37s-.32-.61-.32-1.09v-10.23c0-.53.1-.94.31-1.22s.5-.42.88-.42.66.13.88.38.32.62.32,1.12v5.82l2.7-2.83c.33-.35.59-.59.76-.72s.39-.19.64-.19c.3,0,.55.1.75.29s.3.43.3.72c0,.35-.32.82-.97,1.41l-1.28,1.17,2.46,3.87c.18.29.31.51.39.65.08.15.12.29.12.43,0,.38-.1.68-.31.9-.21.22-.48.33-.82.33-.29,0-.52-.08-.68-.24s-.37-.45-.64-.86Z"/>
      </g>
      <polygon class="cls-2" points="0 0 0 63.98 17.17 63.98 17.17 14.88 28.11 15.14 28.11 27.73 20.99 27.98 20.86 43.5 30.65 63.98 46.43 63.98 46.43 55.33 37.4 38.92 45.28 30.78 45.28 9.16 36.51 0 0 0"/>
      <polygon class="cls-2" points="53.33 63.98 70.47 63.98 70.47 41.01 91.17 41.01 91.17 26.02 70.47 26.02 70.47 14.34 91.17 14.34 91.17 0 53.33 0 53.33 63.98"/>
      <polyline class="cls-2" points="98.28 63.98 98.28 52.69 113.27 31.9 98.9 12.56 98.9 0 114.28 0 124.06 16.88 133.84 0 148.19 0 148.19 12.94 135.24 31.9 148.19 50.02 148.19 63.98 134.86 63.98 123.24 50.02 113.9 63.98"/>
    </g>
  </g>
</svg>