<?xml version="1.0" encoding="UTF-8"?>
<svg id="Lag_1" xmlns="http://www.w3.org/2000/svg" version="1.1" viewBox="0 0 16 16">
  <!-- Generator: Adobe Illustrator 29.8.3, SVG Export Plug-In . SVG Version: 2.1.1 Build 3)  -->
  <defs>
    <style>
      .st0 {
        fill: none;
      }

      .st1 {
        fill: #1d1d1b;
      }

      .st2 {
        fill: #fff;
      }
    </style>
  </defs>
  <rect class="st0" x="-490.35" y="102.6" width="150" height="68"/>
  <g>
    <path class="st1" d="M-33.78,148.16l-2.46,10.13c-.08.33-.15.6-.22.79s-.16.34-.28.45-.31.16-.55.16c-.6,0-.9-.26-.9-.77,0-.13.06-.47.18-1.01l2.45-10.13c.13-.54.25-.91.37-1.11s.35-.3.69-.3c.29,0,.52.07.67.21s.23.33.23.58c0,.18-.06.51-.18.99Z"/>
    <path class="st1" d="M-32.12,158.24v-10.41c0-.48.11-.84.32-1.09s.5-.37.87-.37.66.12.88.36.33.61.33,1.09v10.41c0,.49-.11.85-.34,1.09s-.52.36-.87.36-.64-.13-.86-.38-.33-.61-.33-1.08Z"/>
    <path class="st1" d="M-18.26,154.82c0,.71-.11,1.37-.33,1.98s-.54,1.12-.97,1.56-.93.77-1.51,1-1.25.35-1.98.35-1.38-.12-1.96-.35-1.08-.57-1.51-1.01-.75-.95-.97-1.55-.33-1.25-.33-1.97.11-1.39.33-2,.54-1.12.96-1.55.92-.76,1.51-.99,1.25-.35,1.96-.35,1.39.12,1.98.35,1.1.57,1.52,1,.74.95.96,1.55.33,1.26.33,1.98ZM-20.67,154.82c0-.98-.22-1.74-.65-2.29s-1.01-.82-1.74-.82c-.47,0-.88.12-1.24.36s-.63.6-.83,1.08-.29,1.03-.29,1.66.1,1.17.29,1.64.46.83.82,1.08.77.37,1.25.37c.73,0,1.31-.27,1.74-.82s.65-1.31.65-2.27Z"/>
    <path class="st1" d="M-7.55,151.7v6.97c0,.8-.08,1.48-.25,2.06s-.44,1.05-.82,1.42-.87.65-1.47.83-1.36.27-2.26.27c-.83,0-1.56-.12-2.21-.35s-1.15-.53-1.5-.9-.53-.74-.53-1.13c0-.29.1-.53.3-.72s.44-.28.72-.28c.35,0,.66.16.92.47.13.16.26.32.4.48s.29.3.46.41.37.2.6.25.5.08.81.08c.62,0,1.1-.09,1.45-.26s.58-.41.72-.73.22-.64.24-1,.04-.92.05-1.71c-.37.52-.8.91-1.28,1.18s-1.06.4-1.73.4c-.8,0-1.5-.21-2.1-.62s-1.06-.98-1.38-1.72-.48-1.59-.48-2.56c0-.72.1-1.37.29-1.95s.48-1.07.84-1.47.78-.7,1.26-.9,1-.3,1.56-.3c.68,0,1.27.13,1.77.39s.96.67,1.39,1.23v-.33c0-.42.1-.74.31-.97s.47-.34.79-.34c.46,0,.77.15.92.45s.23.74.23,1.31ZM-14.5,154.74c0,.97.21,1.71.64,2.21s.97.75,1.65.75c.4,0,.77-.11,1.13-.32s.64-.54.87-.97.33-.95.33-1.57c0-.98-.22-1.74-.65-2.29s-1-.82-1.7-.82-1.23.26-1.65.78-.62,1.26-.62,2.22Z"/>
    <path class="st1" d="M-3.91,148.82c-.33,0-.62-.1-.86-.31s-.36-.5-.36-.87c0-.34.12-.62.36-.84s.53-.33.85-.33.59.1.83.3.36.49.36.87-.12.66-.35.87-.51.31-.83.31ZM-2.72,151.3v6.93c0,.48-.11.84-.34,1.09s-.52.37-.87.37-.64-.13-.86-.38-.33-.61-.33-1.08v-6.86c0-.47.11-.83.33-1.07s.51-.36.86-.36.64.12.87.36.34.57.34,1Z"/>
    <path class="st1" d="M7.48,156.56c0,.66-.16,1.23-.48,1.7s-.8.83-1.43,1.07-1.4.36-2.3.36-1.6-.13-2.21-.4-1.07-.59-1.36-.99-.44-.79-.44-1.19c0-.26.09-.49.28-.68s.42-.28.71-.28c.25,0,.45.06.58.18s.26.3.39.52c.25.43.54.75.88.96s.81.32,1.4.32c.48,0,.87-.11,1.18-.32s.46-.46.46-.73c0-.42-.16-.73-.48-.92s-.85-.38-1.58-.55c-.83-.21-1.5-.42-2.02-.65s-.93-.52-1.24-.89-.47-.82-.47-1.36c0-.48.14-.93.43-1.36s.71-.77,1.27-1.02,1.23-.38,2.03-.38c.62,0,1.18.06,1.67.19s.91.3,1.24.52.58.46.76.72.26.52.26.77c0,.28-.09.5-.28.68s-.45.26-.79.26c-.25,0-.46-.07-.63-.21s-.37-.35-.59-.63c-.18-.23-.4-.42-.64-.56s-.58-.21-1-.21-.79.09-1.08.28-.43.41-.43.69c0,.25.11.46.32.62s.5.29.85.4.85.23,1.48.39c.74.18,1.35.4,1.82.65s.83.55,1.07.89.36.73.36,1.17Z"/>
    <path class="st1" d="M9.64,150.15h.26v-1.44c0-.39.01-.69.03-.91s.08-.41.17-.57c.09-.16.23-.3.4-.4s.37-.15.59-.15c.3,0,.58.11.83.34.16.15.27.34.31.56s.07.53.07.94v1.63h.88c.34,0,.6.08.78.24s.27.37.27.62c0,.32-.13.55-.38.68s-.62.19-1.09.19h-.45v4.41c0,.38.01.66.04.87s.1.37.21.49.3.19.56.19c.14,0,.33-.02.57-.07s.43-.07.56-.07c.19,0,.37.08.52.23s.23.35.23.58c0,.39-.21.68-.63.89s-1.03.31-1.82.31c-.75,0-1.32-.13-1.71-.38s-.64-.6-.76-1.05-.18-1.04-.18-1.78v-4.61h-.32c-.35,0-.61-.08-.79-.25s-.27-.37-.27-.62.1-.46.29-.62.47-.24.83-.24Z"/>
    <path class="st1" d="M17.1,148.82c-.33,0-.62-.1-.86-.31s-.36-.5-.36-.87c0-.34.12-.62.36-.84s.53-.33.85-.33.59.1.83.3.36.49.36.87-.12.66-.35.87-.51.31-.83.31ZM18.28,151.3v6.93c0,.48-.11.84-.34,1.09s-.52.37-.87.37-.64-.13-.86-.38-.33-.61-.33-1.08v-6.86c0-.47.11-.83.33-1.07s.51-.36.86-.36.64.12.87.36.34.57.34,1Z"/>
    <path class="st1" d="M26.74,158.6l-2.12-3.48-1.3,1.23v1.91c0,.46-.12.82-.37,1.07-.24.25-.52.37-.84.37-.37,0-.66-.12-.87-.37s-.32-.61-.32-1.09v-10.23c0-.53.1-.94.31-1.22s.5-.42.88-.42.66.13.88.38.32.62.32,1.12v5.82l2.7-2.83c.33-.35.59-.59.76-.72s.39-.19.64-.19c.3,0,.55.1.75.29s.3.43.3.72c0,.35-.32.82-.97,1.41l-1.28,1.17,2.46,3.87c.18.29.31.51.39.65.08.15.12.29.12.43,0,.38-.1.68-.31.9-.21.22-.48.33-.82.33-.29,0-.52-.08-.68-.24s-.37-.45-.64-.86Z"/>
  </g>
  <rect class="st0" x="-461.45" y="175.44" width="92.19" height="28.08"/>
  <polygon class="st2" points="-81.82 77.06 -81.82 141.04 -64.64 141.04 -64.64 91.94 -53.7 92.19 -53.7 104.78 -60.83 105.04 -60.96 120.56 -51.16 141.04 -35.39 141.04 -35.39 132.39 -44.42 115.98 -36.53 107.84 -36.53 86.21 -45.31 77.06 -81.82 77.06"/>
  <polygon class="st2" points="-28.49 141.04 -11.34 141.04 -11.34 118.06 9.35 118.06 9.35 103.08 -11.34 103.08 -11.34 91.4 9.35 91.4 9.35 77.06 -28.49 77.06 -28.49 141.04"/>
  <polyline class="st2" points="16.47 141.04 16.47 129.75 31.45 108.96 17.08 89.62 17.08 77.06 32.47 77.06 42.25 93.93 52.02 77.06 66.37 77.06 66.37 90 53.42 108.96 66.37 127.08 66.37 141.04 53.04 141.04 41.42 127.08 32.09 141.04"/>
  <polygon class="st2" points="1.01 18.64 1.01 26.39 2.72 26.39 2.72 20.44 3.81 20.48 3.81 22 3.1 22.03 3.08 23.91 4.06 26.39 5.63 26.39 5.63 25.34 4.73 23.35 5.52 22.37 5.52 19.75 4.64 18.64 1.01 18.64"/>
  <polygon class="st2" points="6.23 26.39 8.1 26.39 8.1 23.61 10.36 23.61 10.36 21.79 8.1 21.79 8.1 20.38 10.36 20.38 10.36 18.64 6.23 18.64 6.23 26.39"/>
  <polyline class="st2" points="10.97 26.39 10.97 25.02 12.48 22.51 11.03 20.16 11.03 18.64 12.58 18.64 13.57 20.69 14.55 18.64 16 18.64 16 20.21 14.69 22.51 16 24.7 16 26.39 14.66 26.39 13.48 24.7 12.54 26.39"/>
  <polygon class="st2" points=".5 4.13 .5 11.87 2.21 11.87 2.21 5.93 3.3 5.96 3.3 7.48 2.59 7.51 2.58 9.39 3.56 11.87 5.13 11.87 5.13 10.83 4.23 8.84 5.01 7.85 5.01 5.24 4.14 4.13 .5 4.13"/>
  <polygon class="st2" points="5.73 11.87 7.6 11.87 7.6 9.09 9.86 9.09 9.86 7.28 7.6 7.28 7.6 5.86 9.86 5.86 9.86 4.13 5.73 4.13 5.73 11.87"/>
  <polyline class="st2" points="10.46 11.87 10.46 10.5 11.98 7.99 10.53 5.65 10.53 4.13 12.08 4.13 13.06 6.17 14.05 4.13 15.5 4.13 15.5 5.7 14.19 7.99 15.5 10.18 15.5 11.87 14.15 11.87 12.98 10.18 12.04 11.87"/>
</svg>