<svg width="33" height="25" viewBox="0 0 33 25" fill="none" xmlns="http://www.w3.org/2000/svg">
<path d="M13.2021 0.762695C19.4593 1.02215 24.4355 5.25312 24.4355 10.4346L24.4316 10.6846C24.3629 12.9036 23.379 14.9347 21.7803 16.541L31.0801 23.0605L30.3564 23.751L21.0381 17.2188C18.8894 19.007 15.9006 20.1191 12.5928 20.1191L11.9834 20.1064C5.72603 19.8472 0.75 15.6161 0.75 10.4346C0.750012 5.08593 6.05231 0.75 12.5928 0.75L13.2021 0.762695ZM12.5928 1.75C6.40711 1.75 1.75001 5.81689 1.75 10.4346C1.75 15.0523 6.4071 19.1191 12.5928 19.1191C15.6094 19.1191 18.2608 18.1497 20.1875 16.623L19.9941 16.4873L20.7178 15.7969L20.9463 15.957C22.513 14.4307 23.4355 12.4879 23.4355 10.4346C23.4355 5.81694 18.7783 1.75009 12.5928 1.75Z" fill="#555235"/>
<path d="M13.2021 0.762695L13.2332 0.0133392L13.2255 0.013019L13.2178 0.012858L13.2021 0.762695ZM24.4355 10.4346L25.1855 10.4463V10.4346L24.4355 10.4346ZM24.4316 10.6846L25.1814 10.7078L25.1815 10.6963L24.4316 10.6846ZM21.7803 16.541L21.2487 16.012L20.62 16.6436L21.3497 17.1551L21.7803 16.541ZM31.0801 23.0605L31.5978 23.6032L32.2598 22.9716L31.5106 22.4464L31.0801 23.0605ZM30.3564 23.751L29.9259 24.3651L30.4294 24.718L30.8742 24.2936L30.3564 23.751ZM21.0381 17.2188L21.4686 16.6046L20.9991 16.2755L20.5583 16.6423L21.0381 17.2188ZM12.5928 20.1191L12.5772 20.869L12.585 20.8691H12.5928L12.5928 20.1191ZM11.9834 20.1064L11.9523 20.8558L11.9601 20.8561L11.9678 20.8563L11.9834 20.1064ZM0.75 10.4346L0 10.4346V10.4346H0.75ZM12.5928 0.75L12.6084 0.000162721L12.6006 0H12.5928V0.75ZM12.5928 1.75L12.5928 1H12.5928V1.75ZM1.75 10.4346L1 10.4346V10.4346H1.75ZM12.5928 19.1191V19.8691H12.5928L12.5928 19.1191ZM20.1875 16.623L20.6533 17.2109L21.441 16.5867L20.6184 16.0092L20.1875 16.623ZM19.9941 16.4873L19.4764 15.9447L18.8149 16.5758L19.5632 17.1011L19.9941 16.4873ZM20.7178 15.7969L21.1482 15.1827L20.6448 14.8299L20.2 15.2542L20.7178 15.7969ZM20.9463 15.957L20.5158 16.5712L21.0246 16.9278L21.4697 16.4942L20.9463 15.957ZM23.4355 10.4346H24.1855V10.4346L23.4355 10.4346ZM13.2021 0.762695L13.1711 1.51205C19.1676 1.7607 23.6855 5.78289 23.6855 10.4346L24.4355 10.4346L25.1855 10.4346C25.1855 4.72335 19.751 0.283598 13.2332 0.0133392L13.2021 0.762695ZM24.4355 10.4346L23.6856 10.4229L23.6817 10.6729L24.4316 10.6846L25.1815 10.6963L25.1855 10.4463L24.4355 10.4346ZM24.4316 10.6846L23.682 10.6613C23.6199 12.6643 22.7326 14.5209 21.2487 16.012L21.7803 16.541L22.3119 17.0701C24.0253 15.3484 25.1058 13.1428 25.1813 10.7078L24.4316 10.6846ZM21.7803 16.541L21.3497 17.1551L30.6496 23.6747L31.0801 23.0605L31.5106 22.4464L22.2108 15.9269L21.7803 16.541ZM31.0801 23.0605L30.5623 22.5179L29.8387 23.2083L30.3564 23.751L30.8742 24.2936L31.5978 23.6032L31.0801 23.0605ZM30.3564 23.751L30.787 23.1368L21.4686 16.6046L21.0381 17.2188L20.6076 17.8329L29.9259 24.3651L30.3564 23.751ZM21.0381 17.2188L20.5583 16.6423C18.552 18.312 15.7357 19.3691 12.5928 19.3691L12.5928 20.1191L12.5928 20.8691C16.0656 20.8691 19.2267 19.702 21.5179 17.7952L21.0381 17.2188ZM12.5928 20.1191L12.6084 19.3693L11.999 19.3566L11.9834 20.1064L11.9678 20.8563L12.5772 20.869L12.5928 20.1191ZM11.9834 20.1064L12.0144 19.3571C6.01775 19.1086 1.5 15.0864 1.5 10.4346H0.75H0C0 16.1459 5.43431 20.5857 11.9523 20.8558L11.9834 20.1064ZM0.75 10.4346L1.5 10.4346C1.50001 5.63416 6.31839 1.5 12.5928 1.5V0.75V0C5.78623 0 1.31726e-05 4.53769 0 10.4346L0.75 10.4346ZM12.5928 0.75L12.5772 1.49984L13.1865 1.51253L13.2021 0.762695L13.2178 0.012858L12.6084 0.000162721L12.5928 0.75ZM12.5928 1.75V1C6.13648 1 1.00001 5.27239 1 10.4346L1.75 10.4346L2.5 10.4346C2.50001 6.36139 6.67775 2.5 12.5928 2.5V1.75ZM1.75 10.4346H1C1 15.5968 6.13647 19.8691 12.5928 19.8691V19.1191V18.3691C6.67774 18.3691 2.5 14.5078 2.5 10.4346H1.75ZM12.5928 19.1191L12.5928 19.8691C15.7689 19.8691 18.5868 18.8483 20.6533 17.2109L20.1875 16.623L19.7217 16.0352C17.9349 17.4511 15.4498 18.3691 12.5928 18.3691L12.5928 19.1191ZM20.1875 16.623L20.6184 16.0092L20.4251 15.8735L19.9941 16.4873L19.5632 17.1011L19.7566 17.2369L20.1875 16.623ZM19.9941 16.4873L20.5119 17.0299L21.2355 16.3395L20.7178 15.7969L20.2 15.2542L19.4764 15.9447L19.9941 16.4873ZM20.7178 15.7969L20.2873 16.4111L20.5158 16.5712L20.9463 15.957L21.3767 15.3429L21.1482 15.1827L20.7178 15.7969ZM20.9463 15.957L21.4697 16.4942C23.1575 14.8498 24.1855 12.7211 24.1855 10.4346H23.4355H22.6855C22.6855 12.2548 21.8684 14.0115 20.4229 15.4198L20.9463 15.957ZM23.4355 10.4346L24.1855 10.4346C24.1855 5.27243 19.049 1.00009 12.5928 1L12.5928 1.75L12.5928 2.5C18.5077 2.50009 22.6855 6.36145 22.6855 10.4346L23.4355 10.4346Z" fill="#555235"/>
</svg>
